<?xml version="1.0" standalone="no"?>
<!DOCTYPE svg PUBLIC "-//W3C//DTD SVG 20010904//EN"
 "http://www.w3.org/TR/2001/REC-SVG-20010904/DTD/svg10.dtd">
<svg version="1.0" xmlns="http://www.w3.org/2000/svg"
 width="1223.000000pt" height="1280.000000pt" viewBox="0 0 1223.000000 1280.000000"
 preserveAspectRatio="xMidYMid meet">
<metadata>
Created by potrace 1.15, written by Peter Selinger 2001-2017
</metadata>
<g transform="translate(0.000000,1280.000000) scale(0.100000,-0.100000)"
fill="#3f51b5" stroke="none">
<path d="M1775 12789 c-304 -32 -639 -154 -895 -327 -497 -337 -808 -858 -869
-1461 -15 -146 -15 -9045 0 -9197 74 -757 553 -1391 1258 -1668 110 -44 234
-78 386 -108 l110 -22 4275 -4 c3084 -2 4306 0 4385 8 704 71 1294 479 1601
1105 109 222 170 443 194 697 8 79 10 1478 8 4668 l-3 4555 -28 137 c-93 468
-327 868 -677 1163 -301 252 -686 415 -1079 454 -125 13 -8543 13 -8666 0z
m8132 -1421 c-3 -8 -6 -5 -6 6 -1 11 2 17 5 13 3 -3 4 -12 1 -19z m20 -100
c-3 -7 -5 -2 -5 12 0 14 2 19 5 13 2 -7 2 -19 0 -25z m20 -80 c-3 -7 -5 -2 -5
12 0 14 2 19 5 13 2 -7 2 -19 0 -25z m10 -40 c-3 -8 -6 -5 -6 6 -1 11 2 17 5
13 3 -3 4 -12 1 -19z m10 -50 c-3 -7 -5 -2 -5 12 0 14 2 19 5 13 2 -7 2 -19 0
-25z m48 -173 c129 -521 388 -1442 597 -2125 337 -1104 628 -1984 796 -2405
323 -811 490 -1352 451 -1463 -13 -38 -25 -43 -226 -92 -820 -200 -1528 -452
-2493 -890 -245 -111 -713 -341 -745 -365 -20 -16 -20 -17 13 -75 57 -103 39
-155 -83 -248 -136 -102 -559 -298 -765 -354 -121 -33 -279 -33 -331 0 -46 28
-68 74 -76 157 -7 78 -9 79 -140 36 -302 -99 -895 -355 -1418 -611 -487 -238
-853 -436 -1570 -850 -225 -130 -436 -251 -468 -269 l-57 -33 -14 34 c-8 18
-57 157 -109 308 -53 151 -147 424 -210 605 -64 182 -236 677 -382 1100 -323
932 -512 1477 -895 2580 -160 462 -337 971 -391 1130 -55 160 -213 615 -350
1013 -337 974 -354 1025 -346 1044 4 11 42 28 104 47 101 31 185 51 133 32
-14 -5 -71 -23 -127 -41 -79 -23 -103 -35 -103 -48 1 -9 15 -58 33 -109 27
-76 35 -90 48 -83 9 5 412 89 895 186 867 175 881 178 1044 184 l165 6 -161 2
c-113 1 -165 6 -178 15 -16 11 -16 15 -3 25 29 24 324 62 632 82 83 5 175 16
205 24 30 8 82 20 115 26 33 6 78 15 100 20 22 5 67 14 100 20 33 6 76 15 95
20 19 5 60 12 90 16 l55 8 -70 7 c-237 24 -675 21 -1065 -7 -47 -4 -83 -4 -80
-1 10 11 508 37 704 37 289 0 542 -18 841 -61 778 -112 1436 -402 1915 -843
51 -47 99 -86 107 -86 16 0 28 26 118 265 191 505 393 959 579 1299 101 185
258 450 287 486 26 32 16 12 -36 -70 -94 -147 -229 -394 -217 -398 7 -2 9 -9
5 -15 -21 -38 16 15 94 133 90 136 231 318 274 355 12 11 -4 -11 -37 -50 -340
-401 -623 -994 -833 -1747 -46 -167 -53 -298 -16 -298 23 0 39 41 105 275 201
706 471 1301 781 1716 48 64 92 120 99 124 6 4 -17 -31 -53 -77 -73 -96 -166
-232 -227 -333 -49 -82 -57 -97 -36 -71 8 10 34 22 58 27 24 5 68 14 98 20 30
6 73 15 95 19 22 4 67 13 100 20 33 7 78 16 100 20 22 4 67 13 100 20 33 7 78
16 100 20 22 4 67 13 100 20 33 7 78 16 100 20 22 4 67 13 100 20 33 7 78 16
100 20 22 4 67 13 100 20 33 7 78 16 100 20 22 4 67 13 100 20 33 7 78 16 100
20 50 10 122 25 200 40 33 7 78 16 100 20 22 4 67 13 100 20 33 7 78 16 100
20 22 4 65 13 95 19 30 6 128 26 218 44 89 18 162 29 162 23 0 -5 2 -7 5 -4 3
3 -3 38 -14 79 -12 40 -17 69 -12 63 5 -5 19 -45 31 -89 19 -70 326 -1057 635
-2040 681 -2168 974 -3141 959 -3180 -7 -18 -28 -22 -217 -46 -611 -75 -1323
-312 -1856 -617 -400 -230 -740 -501 -1058 -842 -87 -94 -161 -170 -165 -170
-25 0 29 105 127 250 469 695 1156 1158 2045 1379 245 60 379 82 759 121 191
20 271 34 271 48 0 14 -41 159 -80 277 -21 66 -79 248 -130 405 -501 1558
-871 2681 -877 2663 -6 -16 -16 18 457 -1528 448 -1466 495 -1630 472 -1644
-7 -4 -95 -25 -195 -46 -1084 -223 -1924 -638 -2502 -1236 -217 -225 -376
-447 -540 -756 -53 -101 -101 -183 -105 -183 -9 0 -45 112 -279 855 -198 633
-344 1106 -551 1795 -164 544 -187 618 -202 635 -21 24 5 -204 48 -410 28
-135 56 -238 189 -710 116 -409 451 -1622 500 -1808 20 -76 35 -149 33 -162
-3 -24 -7 -22 -123 52 -338 215 -673 333 -1135 400 -101 14 -191 18 -470 18
-302 0 -366 -3 -510 -23 -358 -49 -798 -158 -1178 -292 -79 -27 -149 -50 -157
-50 -16 0 -61 113 -228 570 -63 173 -183 500 -265 725 -593 1619 -1207 3205
-1242 3205 -13 0 75 -258 184 -545 579 -1516 1140 -3084 1357 -3790 94 -304
95 -305 129 -305 15 0 99 24 186 54 598 202 1005 283 1535 305 540 22 969 -38
1419 -198 132 -47 238 -104 204 -109 -11 -1 -146 17 -300 42 -339 55 -433 65
-729 72 -680 18 -1198 -63 -1710 -267 -193 -77 -343 -156 -531 -280 -83 -54
-160 -99 -172 -99 -19 0 -30 29 -107 268 -313 970 -819 2453 -1095 3212 -300
825 -447 1202 -637 1633 -102 230 -142 304 -143 265 0 -18 102 -311 253 -728
759 -2088 1374 -3845 1647 -4707 28 -90 54 -163 58 -163 4 0 43 25 87 56 171
120 447 275 630 354 331 144 627 229 1040 297 95 15 172 18 560 18 543 0 652
-11 1060 -102 159 -35 172 -39 164 -48 -3 -2 -196 -7 -429 -10 -606 -9 -731
-19 -1085 -86 -386 -73 -756 -186 -1084 -331 -320 -141 -637 -316 -900 -495
-51 -35 -98 -62 -105 -60 -17 6 -55 113 -257 737 -578 1776 -962 2839 -1508
4175 -137 335 -316 725 -333 725 -14 0 -46 85 490 -1335 362 -961 702 -1893
977 -2680 290 -830 555 -1700 555 -1825 0 -19 4 -41 9 -49 14 -21 37 -9 209
112 475 333 955 580 1447 745 191 64 338 103 540 141 340 65 572 80 512 34 -6
-6 -93 -36 -192 -68 -616 -196 -1280 -503 -1787 -826 -227 -144 -360 -244
-684 -513 l-34 -28 -16 38 c-9 22 -144 404 -299 849 -823 2356 -1151 3266
-1682 4660 -29 75 -43 99 -43 72 0 -28 81 -262 610 -1757 654 -1850 1187
-3417 1339 -3939 28 -96 55 -179 60 -184 6 -6 29 7 63 37 536 475 988 789
1513 1054 395 199 711 318 1105 416 376 94 492 106 1050 106 l375 0 82 82 82
81 6 -29 c12 -52 14 -57 28 -47 6 5 93 75 192 155 897 723 1734 1169 2547
1357 231 53 345 69 583 81 338 18 395 25 423 54 19 19 25 34 24 63 -3 74 -88
361 -357 1213 -464 1471 -994 3130 -1006 3150 -44 77 91 -394 760 -2654 39
-131 71 -243 71 -250 -1 -24 -29 44 -54 133 -26 91 -337 1084 -587 1876 -108
340 -245 766 -376 1170 -85 262 -291 870 -327 964 -19 52 -34 97 -31 99 5 5
25 -43 49 -115 10 -29 20 -53 22 -53 3 0 3 9 -1 20 -7 21 -13 19 120 45 44 9
90 18 102 21 17 5 22 0 28 -26 4 -17 9 -30 11 -27 3 2 -14 78 -36 167 -38 155
-45 189 -36 179 2 -2 20 -71 41 -154z m-2465 -9 c0 -2 -8 -10 -17 -17 -16 -13
-17 -12 -4 4 13 16 21 21 21 13z m-50 -70 c0 -2 -8 -10 -17 -17 -16 -13 -17
-12 -4 4 13 16 21 21 21 13z m170 0 c0 -2 -8 -10 -17 -17 -16 -13 -17 -12 -4
4 13 16 21 21 21 13z m11 -49 l-24 -22 19 27 c10 14 21 24 23 22 3 -3 -6 -15
-18 -27z m-221 -7 c-6 -11 -13 -20 -16 -20 -2 0 0 9 6 20 6 11 13 20 16 20 2
0 0 -9 -6 -20z m160 17 c0 -1 -24 -25 -52 -52 l-53 -50 50 53 c46 48 55 57 55
49z m40 -40 c0 -2 -12 -14 -27 -28 l-28 -24 24 28 c23 25 31 32 31 24z m-4980
-1207 c-165 -20 -287 -31 -250 -23 55 12 298 41 345 41 28 0 -15 -8 -95 -18z
m-287 -37 c-7 -2 -21 -2 -30 0 -10 3 -4 5 12 5 17 0 24 -2 18 -5z m-65 -10
c-10 -2 -26 -2 -35 0 -10 3 -2 5 17 5 19 0 27 -2 18 -5z m-88 -13 c-55 -12
-136 -22 -129 -16 6 7 104 24 139 24 18 0 15 -2 -10 -8z m-147 -27 c-7 -2 -21
-2 -30 0 -10 3 -4 5 12 5 17 0 24 -2 18 -5z m-54 -7 c-7 -7 -230 -48 -235 -43
-3 2 42 13 98 25 102 20 145 26 137 18z m-256 -53 c-7 -2 -19 -2 -25 0 -7 3
-2 5 12 5 14 0 19 -2 13 -5z m-46 -9 c-3 -3 -12 -4 -19 -1 -8 3 -5 6 6 6 11 1
17 -2 13 -5z m-127 -29 c-100 -25 -175 -39 -150 -28 25 10 203 51 225 51 11 0
-23 -11 -75 -23z m-190 -45 c-34 -11 -60 -11 -35 0 11 5 29 8 40 8 16 0 15 -2
-5 -8z m-61 -14 c-7 -7 -131 -37 -136 -33 -2 3 22 11 54 20 59 15 90 20 82 13z
m-150 -40 c-7 -7 -131 -37 -136 -33 -2 3 22 11 54 20 59 15 90 20 82 13z
m10261 -3868 c23 -50 25 -91 7 -106 -7 -6 -104 -29 -217 -52 -269 -54 -418
-90 -625 -150 -597 -172 -1199 -435 -1730 -753 -194 -116 -333 -210 -579 -390
-110 -81 -202 -145 -204 -143 -27 28 338 427 556 608 610 508 1348 820 2142
908 102 11 275 26 384 34 187 12 201 14 218 36 10 12 18 28 18 36 0 25 11 15
30 -28z"/>
<path d="M9790 10685 c0 -5 5 -17 10 -25 5 -8 10 -10 10 -5 0 6 -5 17 -10 25
-5 8 -10 11 -10 5z"/>
<path d="M7092 10164 c-11 -26 -11 -27 2 -11 10 13 15 14 18 6 3 -9 7 -7 11 5
4 9 3 15 -2 11 -5 -3 -11 0 -13 6 -2 6 -9 -2 -16 -17z"/>
<path d="M10200 9675 c1 -11 7 -33 16 -50 l14 -30 -5 39 c-5 42 -25 75 -25 41z"/>
<path d="M4130 9569 c25 -4 59 -7 75 -7 22 0 18 3 -15 9 -25 4 -58 7 -75 7
-22 0 -18 -3 15 -9z"/>
<path d="M4283 9553 c9 -2 23 -2 30 0 6 3 -1 5 -18 5 -16 0 -22 -2 -12 -5z"/>
<path d="M4343 9543 c9 -2 23 -2 30 0 6 3 -1 5 -18 5 -16 0 -22 -2 -12 -5z"/>
<path d="M3573 9463 c48 -2 126 -2 175 0 48 1 8 3 -88 3 -96 0 -136 -2 -87 -3z"/>
<path d="M4028 9453 c6 -2 18 -2 25 0 6 3 1 5 -13 5 -14 0 -19 -2 -12 -5z"/>
<path d="M3415 9443 c-291 -9 -746 -60 -761 -84 -7 -12 -24 -12 516 -14 568
-2 842 -20 1230 -81 522 -83 956 -241 1231 -449 110 -83 133 -72 71 34 -94
164 -370 323 -776 446 -390 118 -903 168 -1511 148z"/>
<path d="M3203 9333 c26 -2 67 -2 90 0 23 2 2 3 -48 3 -49 0 -68 -1 -42 -3z"/>
</g>
</svg>
